<svg xmlns="http://www.w3.org/2000/svg" viewBox="0 0 256 256">
  <rect width="256" height="256" fill="none"/>
  <!-- Map Pin Body (Deep Violet) -->
  <path d="M128,16a88.1,88.1,0,0,0-88,88c0,75.3,80,132.2,83.4,134.6a8.3,8.3,0,0,0,9.2,0C136,236.2,216,179.3,216,104A88.1,88.1,0,0,0,128,16Z" fill="#6d28d9"/>
  <!-- Inner White Circle -->
  <circle cx="128" cy="104" r="40" fill="#ffffff"/>
  <!-- Bright Magenta Star -->
  <path d="M128,76l9.3,18.8,20.7,3-15,14.6,3.5,20.6L128,123.2l-18.5,9.8,3.5-20.6-15-14.6,20.7-3Z" fill="#ec4899"/>
</svg>
